# xmcd
#
# Track frame offsets:
# 150
# 16445
# 34880
# 51252
# 78253
# 93951
# 110328
# 128007
# 144446
# 162209
# 180700
#
# Disc length: 2636 seconds
#
#
# Revision: 0
# Processed by: cddbd v1.4PL0 Copyright (c) Steve Scherf et al.
# Submitted via: FreeRIP 2.30 
#
DISCID=860a4a0b
DTITLE=Luz Casal - Con Otra Mirada
DYEAR=2002
DGENRE=Pop-Folk
TTITLE0=Ni Tu Ni Yo
TTITLE1=Me Gustaria Que Comprendieras
TTITLE2=Palabras Guardadas
TTITLE3=Puenden Ser Tantas Cosas
TTITLE4=Tu Perdon
TTITLE5=Tu Eres Para Mi, Lo Mejor
TTITLE6=Perdida
TTITLE7=Dame Un Beso
TTITLE8=El Dia Que Yo Cambie
TTITLE9=Je Voudrais Tant Que Tu Comprennes
TTITLE10=Palabra Amor
EXTD=
EXTT0=
EXTT1=
EXTT2=
EXTT3=
EXTT4=
EXTT5=
EXTT6=
EXTT7=
EXTT8=
EXTT9=
EXTT10=
PLAYORDER=
